<?xml version="1.0" encoding="utf-8"?>
<!-- Generator: Adobe Illustrator 15.0.0, SVG Export Plug-In . SVG Version: 6.00 Build 0)  -->
<!DOCTYPE svg PUBLIC "-//W3C//DTD SVG 1.1//EN" "http://www.w3.org/Graphics/SVG/1.1/DTD/svg11.dtd">
<svg version="1.1" id="图层_1" xmlns="http://www.w3.org/2000/svg" xmlns:xlink="http://www.w3.org/1999/xlink" x="0px" y="0px"
	 width="512px" height="512px" viewBox="0 0 512 512" enable-background="new 0 0 512 512" xml:space="preserve">
<radialGradient id="SVGID_1_" cx="751.7861" cy="55945.5703" r="159.8184" gradientTransform="matrix(0.9182 0 0 0.1318 -382.8201 -7062.6499)" gradientUnits="userSpaceOnUse">
	<stop  offset="0" style="stop-color:#B4B4B4"/>
	<stop  offset="1" style="stop-color:#FFFFFF"/>
</radialGradient>
<path fill="url(#SVGID_1_)" d="M467.927,313.537c0,11.904-71.844,21.546-160.456,21.546c-88.616,0-160.458-9.642-160.458-21.546
	c0-11.885,71.844-21.534,160.458-21.534C396.083,292.003,467.927,301.652,467.927,313.537z"/>
<path fill="#1C75BC" d="M512.998,442.154c0,39.671-32.172,71.879-71.896,71.879H74.214c-39.721,0-71.925-32.207-71.925-71.879V75.23
	c0-39.738,32.204-71.908,71.925-71.908h366.891C480.827,3.322,513,35.495,513,75.23v366.924H512.998L512.998,442.154z"/>
<path id="transmission_2_" fill="#FFFFFF" d="M359.921,352.66c0,7.502-5.503,13.582-12.288,13.582h-190.52
	c-6.786,0-12.29-6.08-12.29-13.582c0-4.183,1.74-7.875,4.428-10.354c-2.185-2.261-3.713-5.316-4.044-8.797
	c-0.031-0.309,0-0.597-0.005-0.901c-0.175-0.509-0.368-1.008-0.488-1.537c-1.602-7.362,2.498-14.261,9.167-15.396l170.429-48.45
	c6.67-1.137,13.37,3.916,14.981,11.29c1.604,7.364-2.497,14.251-9.166,15.388l-60.364,17.157l68.557-4.818
	c6.767-0.509,12.829,5.137,13.545,12.616c0.712,7.471-4.192,13.943-10.956,14.442l-82.116,5.781h88.843
	C354.418,339.077,359.921,345.158,359.921,352.66z M317.72,261.032l-151.291,42.922c-6.626,1.328-13.512-3.521-15.389-10.845
	c-1.878-7.311,1.968-14.324,8.588-15.652l151.297-42.92c6.614-1.326,13.504,3.523,15.383,10.845
	C328.186,252.692,324.345,259.707,317.72,261.032z M227.418,181.713l19.961,59.242l-23.375,6.727l-19.919-59.115
	c-1.47,0.105-2.952,0.202-4.466,0.202c-29.131,0-52.748-20.883-52.748-46.635c0-25.754,23.615-46.634,52.746-46.634
	c29.139,0,52.754,20.882,52.754,46.635C252.372,158.859,242.379,173.481,227.418,181.713z M208.075,168.047
	c-24.237,0-44.174-16.225-46.7-37.055c-1.32,3.524-2.208,7.227-2.208,11.143c0,19.758,18.121,35.771,40.463,35.771
	c14.344,0,26.866-6.644,34.055-16.595C226.313,165.564,217.526,168.047,208.075,168.047z"/>
</svg>
