<?xml version="1.0" encoding="utf-8"?>
<!-- Generator: Adobe Illustrator 15.0.0, SVG Export Plug-In . SVG Version: 6.00 Build 0)  -->
<!DOCTYPE svg PUBLIC "-//W3C//DTD SVG 1.1//EN" "http://www.w3.org/Graphics/SVG/1.1/DTD/svg11.dtd">
<svg version="1.1" id="图层_1" xmlns="http://www.w3.org/2000/svg" xmlns:xlink="http://www.w3.org/1999/xlink" x="0px" y="0px"
	 width="512px" height="512px" viewBox="0 0 512 512" enable-background="new 0 0 512 512" xml:space="preserve">
<radialGradient id="SVGID_1_" cx="751.7861" cy="55945.5703" r="159.8184" gradientTransform="matrix(0.9182 0 0 0.1318 -382.8201 -7062.6499)" gradientUnits="userSpaceOnUse">
	<stop  offset="0" style="stop-color:#B4B4B4"/>
	<stop  offset="1" style="stop-color:#FFFFFF"/>
</radialGradient>
<path fill="url(#SVGID_1_)" d="M467.927,313.537c0,11.904-71.844,21.546-160.456,21.546c-88.616,0-160.458-9.642-160.458-21.546
	c0-11.885,71.844-21.534,160.458-21.534C396.083,292.003,467.927,301.652,467.927,313.537z"/>
<path fill="#1C75BC" d="M512.998,442.154c0,39.671-32.172,71.879-71.896,71.879H74.214c-39.721,0-71.925-32.207-71.925-71.879V75.23
	c0-39.738,32.204-71.908,71.925-71.908h366.891C480.827,3.322,513,35.495,513,75.23v366.924H512.998L512.998,442.154z"/>
<path id="training_plan" fill="#FFFFFF" d="M359.168,296.378c0,34.878-25.147,63.159-56.162,63.159
	c-31.019,0-56.16-28.281-56.16-63.159c0-32.946,21.283-59.962,49.9-62.864v-14.398h-8.624v-10.842h27.048v10.842h-8.232v14.398
	c10.772,1.088,21.8,5.627,29.958,12.586l11.182-12.599l10.833,12.179l-11.186,12.597
	C354.87,268.876,359.168,282.048,359.168,296.378z M303.006,244.706c-25.338,0-45.952,23.178-45.952,51.672
	c0,28.498,20.614,51.673,45.952,51.673c25.343,0,45.947-23.175,45.947-51.673C348.953,267.884,328.349,244.706,303.006,244.706z
	 M306.938,306.268v6.897h-9.038v-6.897c-3.042-1.994-5.105-5.643-5.105-9.89c0-4.237,2.457-7.905,5.499-9.891V261.05h8.645v25.438
	c3.047,1.985,6.28,5.653,6.28,9.891C313.216,300.625,309.984,304.273,306.938,306.268z M178.833,260.606h58.669
	c-2.132,4.935-3.8,10.169-4.98,15.616h-53.689c-3.837,0-6.943-3.497-6.943-7.809C171.89,264.104,174.995,260.606,178.833,260.606z
	 M242.949,250.201h-64.116c-3.837,0-6.943-3.497-6.943-7.808c0-4.311,3.105-7.806,6.943-7.806h76.842
	C250.836,239.121,246.551,244.369,242.949,250.201z M178.833,198.154c-3.837,0-6.943-3.497-6.943-7.806
	c0-4.313,3.105-7.808,6.943-7.808h92.563c3.834,0,6.944,3.495,6.944,7.808c0,4.309-3.11,7.806-6.944,7.806H178.833z
	 M178.833,224.179c-3.837,0-6.943-3.499-6.943-7.811c0-4.311,3.105-7.804,6.943-7.804h92.563c0.818,0,1.582,0.228,2.313,0.523v13.22
	c-1.236,0.573-2.438,1.219-3.638,1.87h-91.239V224.179z M292.224,166.925c0-14.372-10.367-26.021-23.143-26.021h-0.233
	c0.107,0.856,0.233,1.712,0.233,2.602c0,10.059-7.255,18.217-16.199,18.217h-55.538c-8.949,0-16.199-8.158-16.199-18.217
	c0-0.89,0.122-1.747,0.235-2.602h-0.235c-12.782,0-23.142,11.65-23.142,26.021v150.934c0,14.37,10.36,26.023,23.142,26.023h64.69
	c4.263,5.983,9.269,11.249,14.893,15.613h-88.84c-12.783,0-27.769-11.651-27.769-26.022V156.517
	c0-14.373,14.988-26.026,27.769-26.026h14.143c2.92-3.209,6.907-5.202,11.313-5.202h1.997c1.32-14.592,12.154-26.023,25.482-26.023
	c13.325,0,24.159,11.431,25.483,26.023h2.576c4.408,0,8.394,1.992,11.313,5.202h14.144c12.781,0,27.768,11.653,27.768,26.026v46.841
	h-13.883V166.925L292.224,166.925z M224.824,113.456c-7.249,0-13.128,6.608-13.128,14.761s5.881,14.763,13.128,14.763
	c7.251,0,13.126-6.61,13.126-14.763C237.95,120.066,232.075,113.456,224.824,113.456z"/>
</svg>
