<?xml version="1.0" encoding="utf-8"?>
<!-- Generator: Adobe Illustrator 15.0.0, SVG Export Plug-In . SVG Version: 6.00 Build 0)  -->
<!DOCTYPE svg PUBLIC "-//W3C//DTD SVG 1.1//EN" "http://www.w3.org/Graphics/SVG/1.1/DTD/svg11.dtd">
<svg version="1.1" id="图层_1" xmlns="http://www.w3.org/2000/svg" xmlns:xlink="http://www.w3.org/1999/xlink" x="0px" y="0px"
	 width="512px" height="512px" viewBox="0 0 512 512" enable-background="new 0 0 512 512" xml:space="preserve">
<radialGradient id="SVGID_1_" cx="751.7861" cy="55945.5703" r="159.8184" gradientTransform="matrix(0.9182 0 0 0.1318 -382.8201 -7062.6499)" gradientUnits="userSpaceOnUse">
	<stop  offset="0" style="stop-color:#B4B4B4"/>
	<stop  offset="1" style="stop-color:#FFFFFF"/>
</radialGradient>
<path fill="url(#SVGID_1_)" d="M467.927,313.537c0,11.904-71.844,21.546-160.456,21.546c-88.616,0-160.458-9.642-160.458-21.546
	c0-11.885,71.844-21.534,160.458-21.534C396.083,292.003,467.927,301.652,467.927,313.537z"/>
<path fill="#1C75BC" d="M512.998,442.154c0,39.671-32.172,71.879-71.896,71.879H74.214c-39.721,0-71.925-32.207-71.925-71.879V75.23
	c0-39.738,32.204-71.908,71.925-71.908h366.891C480.827,3.322,513,35.495,513,75.23v366.924H512.998L512.998,442.154z"/>
<g id="home">
	<g>
		<path fill="#FFFFFF" d="M330.917,223.549c0,63.435,0.402,98.188,0.402,98.188c0,14.997-14.237,27.161-26.374,27.161h-13.188
			V245.683c0-9.003-5.906-16.296-13.188-16.296h-48.354c-7.287,0-13.187,7.296-13.187,16.296v103.215h-13.187
			c-12.14,0-26.375-12.167-26.375-27.161c0,0,0.403-32.427,0.403-98.188c-10.225,2.322-13.59,13.35-13.59,26.661v87.822
			c0,14.999,9.839,27.163,21.979,27.163h43.958h48.356h43.957c12.14,0,21.979-12.164,21.979-27.163v-87.822
			C344.505,236.899,341.141,225.871,330.917,223.549z M247.802,272.165c0-6.376,4.18-11.543,9.341-11.543
			c5.16,0,9.342,5.167,9.342,11.543c0,6.375-4.182,11.546-9.342,11.546C251.98,283.711,247.802,278.54,247.802,272.165z
			 M278.569,310.872H256.59v-10.861h21.979V310.872L278.569,310.872z M355.639,194.817l-13.785-13.809L253.01,95.239
			L147.306,196.567c-3.456,4.258-4.174,11.056-1.428,16.336c3.162,6.077,9.716,7.835,14.635,3.922l12.969-12.979
			c-0.382,3.044,0.059,6.261,1.52,9.054c3.158,6.078,9.714,7.833,14.628,3.925l12.971-12.982c-0.38,3.044,0.066,6.259,1.518,9.055
			c3.164,6.076,9.716,7.835,14.636,3.924l12.969-12.982c-0.383,3.047,0.063,6.265,1.52,9.058c3.163,6.076,9.714,7.831,14.633,3.924
			l4.472-4.48l4.469,4.48c4.915,3.908,11.47,2.152,14.632-3.924c1.459-2.799,1.901-6.01,1.521-9.058l12.965,12.982
			c4.92,3.914,11.471,2.155,14.639-3.924c1.455-2.796,1.898-6.009,1.52-9.055l12.964,12.982c4.919,3.908,11.472,2.153,14.639-3.925
			c1.451-2.798,1.897-6.01,1.518-9.054l12.966,12.979c4.919,3.914,11.472,2.155,14.634-3.922
			C361.979,206.819,360.558,198.723,355.639,194.817z"/>
	</g>
</g>
</svg>
