<?xml version="1.0" encoding="utf-8"?>
<!-- Generator: Adobe Illustrator 15.0.0, SVG Export Plug-In . SVG Version: 6.00 Build 0)  -->
<!DOCTYPE svg PUBLIC "-//W3C//DTD SVG 1.1//EN" "http://www.w3.org/Graphics/SVG/1.1/DTD/svg11.dtd">
<svg version="1.1" id="图层_1" xmlns="http://www.w3.org/2000/svg" xmlns:xlink="http://www.w3.org/1999/xlink" x="0px" y="0px"
	 width="512px" height="512px" viewBox="0 0 512 512" enable-background="new 0 0 512 512" xml:space="preserve">
<radialGradient id="SVGID_1_" cx="751.7861" cy="55945.5703" r="159.8184" gradientTransform="matrix(0.9182 0 0 0.1318 -382.8201 -7062.6499)" gradientUnits="userSpaceOnUse">
	<stop  offset="0" style="stop-color:#B4B4B4"/>
	<stop  offset="1" style="stop-color:#FFFFFF"/>
</radialGradient>
<path fill="url(#SVGID_1_)" d="M467.927,313.537c0,11.904-71.844,21.546-160.456,21.546c-88.616,0-160.458-9.642-160.458-21.546
	c0-11.885,71.844-21.534,160.458-21.534C396.083,292.003,467.927,301.652,467.927,313.537z"/>
<path fill="#1C75BC" d="M512.998,442.154c0,39.671-32.172,71.879-71.896,71.879H74.214c-39.721,0-71.925-32.207-71.925-71.879V75.23
	c0-39.738,32.204-71.908,71.925-71.908h366.891C480.827,3.322,513,35.495,513,75.23v366.924H512.998L512.998,442.154z"/>
<path id="support_2_" fill="#FFFFFF" d="M335.082,266.836c-1.714,12.956-5.986,22.994-11.595,30.812
	c6.216,38.168,13.53,47.441,20.438,49.512c-1.689,3.694-38.905,18.212-55.021-9.728c-11.061,18.4-23.909,30.327-36.599,30.327
	c-11.872,0-24.059-10.451-34.846-26.851c-17.254,22.841-52.773,6.251-52.773,6.251s15.667-9.714,21.761-90.068
	c-2.224-12.751-3.468-25.577-3.468-37.831c0-66.092,35.931-90.825,69.325-90.825c33.387,0,67.894,24.73,67.894,90.825
	c0,10.239-0.836,20.88-2.361,31.541c1.077,11.894,2.221,22.168,3.413,31.331c2.478-4.9,4.554-10.55,6.063-17.086
	c-1.354-0.643-2.682-1.39-3.938-2.348c3.908-12.675,6.116-26.49,6.116-41.006c0-13.133-1.858-25.667-5.091-37.328
	c1.663-1.13,3.418-1.965,5.232-2.534c-8.818-38.81-40.175-67.556-77.614-67.577v0.016c-0.072,0-0.144-0.006-0.217-0.012
	c-0.071,0.006-0.143,0.012-0.215,0.012v-0.016c-18.727,0.01-35.922,7.202-49.539,19.24c-0.1,0.088-0.189,0.188-0.287,0.269
	c-1.598,1.429-3.154,2.914-4.651,4.472c-0.204,0.211-0.393,0.451-0.592,0.668c-1.368,1.452-2.712,2.938-3.985,4.495
	c-0.309,0.38-0.585,0.796-0.89,1.176c-1.131,1.434-2.256,2.872-3.303,4.389c-0.399,0.581-0.751,1.199-1.135,1.784
	c-0.902,1.37-1.813,2.726-2.65,4.154c-0.469,0.804-0.876,1.657-1.325,2.477c-0.685,1.26-1.394,2.504-2.029,3.804
	c-0.519,1.07-0.961,2.187-1.444,3.283c-0.485,1.105-1.009,2.187-1.456,3.317c-0.558,1.411-1.027,2.878-1.521,4.33
	c-0.292,0.861-0.629,1.69-0.896,2.557c-0.724,2.347-1.367,4.733-1.917,7.163c1.816,0.567,3.57,1.405,5.232,2.534
	c-3.229,11.663-5.083,24.199-5.083,37.33c0,14.513,2.201,28.33,6.115,41.008c-3.494,2.649-7.378,4.171-11.502,4.171
	c-14.838,0-26.871-19.23-26.871-42.947c0-21.221,9.652-38.733,22.306-42.21c9.062-44.708,44.747-78.124,87.475-78.124
	c0.055,0,0.108,0.006,0.163,0.011c0.047-0.003,0.101-0.011,0.156-0.011c42.729,0,78.413,33.417,87.476,78.124
	c12.654,3.477,22.306,20.992,22.306,42.21C361.746,247.529,349.823,266.655,335.082,266.836z M310.798,229.375
	c-0.959-0.357-2.06-0.814-3.262-1.363c-0.237-0.117-0.478-0.234-0.728-0.35c-1.126-0.538-2.313-1.16-3.581-1.895
	c-0.147-0.09-0.283-0.153-0.434-0.248c-1.338-0.795-2.738-1.743-4.174-2.785c-0.37-0.275-0.729-0.557-1.107-0.842
	c-1.349-1.042-2.709-2.179-4.092-3.466c-0.165-0.149-0.329-0.273-0.497-0.431c-1.478-1.416-2.946-3.031-4.408-4.759
	c-0.382-0.457-0.759-0.924-1.138-1.405c-1.415-1.773-2.798-3.657-4.129-5.765c-0.083-0.14-0.178-0.256-0.262-0.391
	c-1.376-2.219-2.671-4.693-3.915-7.31c-0.314-0.655-0.615-1.328-0.916-2.013c-1.227-2.777-2.397-5.695-3.409-8.932
	c-12.007,45.317-37.877,47.752-37.877,47.752s11.721-19.476,9.433-55.43c-0.951,2.772-1.998,5.443-3.091,8.051
	c-0.34,0.808-0.696,1.581-1.051,2.369c-0.799,1.815-1.621,3.588-2.478,5.313c-0.408,0.814-0.815,1.622-1.23,2.418
	c-0.916,1.749-1.857,3.452-2.823,5.115c-0.354,0.609-0.693,1.23-1.055,1.826c-2.692,4.495-5.538,8.644-8.438,12.464
	c-0.379,0.505-0.759,0.979-1.139,1.464c-1.103,1.416-2.203,2.784-3.31,4.103c-0.42,0.497-0.832,0.991-1.25,1.476
	c-1.153,1.338-2.295,2.621-3.443,3.854c-0.31,0.34-0.619,0.683-0.925,1.013c-1.459,1.55-2.908,3.025-4.323,4.412
	c-0.095,0.095-0.183,0.177-0.283,0.271c-1.284,1.245-2.541,2.418-3.764,3.529c-0.447,0.411-0.87,0.779-1.308,1.166
	c-0.854,0.755-1.688,1.482-2.501,2.173c-0.491,0.414-0.968,0.819-1.444,1.207c-0.7,0.571-1.367,1.111-2.027,1.631
	c-0.486,0.388-0.975,0.779-1.439,1.137c-0.411,0.317-0.771,0.589-1.161,0.878c-1.402,1.054-2.67,1.973-3.756,2.728
	c7.049,50.993,33.371,103.373,58.143,103.373c11.725,0,23.567-11.807,33.533-29.563c-5.708,1.468-10.769,2.152-14.411,2.463
	c-1.798,4.903-5.593,8.314-10.019,8.314c-6.16,0-11.15-6.543-11.15-14.604c0-8.063,4.991-14.608,11.15-14.608
	c4.857,0,8.95,4.102,10.479,9.785c5.328-0.31,12.716-1.363,20.498-4.482c10.313-23.221,17.531-52.6,18.514-79.641L310.798,229.375
	L310.798,229.375z M278.32,249.406c9.647,0,17.618,7.122,19.237,16.482h-38.48C260.695,256.528,268.674,249.406,278.32,249.406z
	 M228.008,249.406c9.646,0,17.619,7.122,19.236,16.482h-38.48C210.38,256.528,218.356,249.406,228.008,249.406z"/>
</svg>
