<?xml version="1.0" encoding="utf-8"?>
<!-- Generator: Adobe Illustrator 15.0.0, SVG Export Plug-In . SVG Version: 6.00 Build 0)  -->
<!DOCTYPE svg PUBLIC "-//W3C//DTD SVG 1.1//EN" "http://www.w3.org/Graphics/SVG/1.1/DTD/svg11.dtd">
<svg version="1.1" id="图层_1" xmlns="http://www.w3.org/2000/svg" xmlns:xlink="http://www.w3.org/1999/xlink" x="0px" y="0px"
	 width="512px" height="512px" viewBox="0 0 512 512" enable-background="new 0 0 512 512" xml:space="preserve">
<radialGradient id="SVGID_1_" cx="751.7861" cy="55945.5703" r="159.8184" gradientTransform="matrix(0.9182 0 0 0.1318 -382.8201 -7062.6499)" gradientUnits="userSpaceOnUse">
	<stop  offset="0" style="stop-color:#B4B4B4"/>
	<stop  offset="1" style="stop-color:#FFFFFF"/>
</radialGradient>
<path fill="url(#SVGID_1_)" d="M467.927,313.537c0,11.904-71.844,21.546-160.456,21.546c-88.616,0-160.458-9.642-160.458-21.546
	c0-11.885,71.844-21.534,160.458-21.534C396.083,292.003,467.927,301.652,467.927,313.537z"/>
<path fill="#1C75BC" d="M512.998,442.154c0,39.671-32.172,71.879-71.896,71.879H74.214c-39.721,0-71.925-32.207-71.925-71.879V75.23
	c0-39.738,32.204-71.908,71.925-71.908h366.891C480.827,3.322,513,35.495,513,75.23v366.924H512.998L512.998,442.154z"/>
<path id="dealer_2_" fill="#FFFFFF" d="M309.842,368.053L309.842,368.053c-2.46,0-113.7,0-119.687,0l0,0h-50.183l26.766-65.433
	c0,0,9.321-21.809,20.814-21.809h128.355c11.498,0,20.816,21.809,20.816,21.809l22.305,65.433H309.842L309.842,368.053z
	 M199.394,291.834c-9.127,0-16.526,17.317-16.526,17.317l-21.259,47.88h28.887c1.397-25.753,7.181-51.202,10.86-65.197H199.394
	L199.394,291.834z M222.46,291.834c4.294,32.806,15.373,56.224,28.4,56.224c13.04,0,24.11-23.417,28.41-56.224H222.46z
	 M319.658,309.151c0,0-7.396-17.317-16.528-17.317h-3.869c3.785,12.62,9.219,35.469,10.353,65.197h27.764L319.658,309.151z
	 M247.767,268.346c-45.573,0-82.518-38.711-82.518-86.459c0-47.753,36.945-86.464,82.518-86.464
	c45.571,0,82.513,38.711,82.513,86.464C330.28,229.634,293.338,268.346,247.767,268.346z M266.855,130.481
	c-22.614,63.61-59.46,50.425-82.013,51.4c0,36.422,28.18,65.949,62.933,65.949c34.758,0,62.937-29.527,62.937-65.949
	C267.348,171.816,290.338,145.928,266.855,130.481z"/>
</svg>
