<?xml version="1.0" encoding="utf-8"?>
<!-- Generator: Adobe Illustrator 16.0.0, SVG Export Plug-In . SVG Version: 6.00 Build 0)  -->
<!DOCTYPE svg PUBLIC "-//W3C//DTD SVG 1.1//EN" "http://www.w3.org/Graphics/SVG/1.1/DTD/svg11.dtd">
<svg version="1.1" id="图层_1" xmlns="http://www.w3.org/2000/svg" xmlns:xlink="http://www.w3.org/1999/xlink" x="0px" y="0px"
	 width="512px" height="512px" viewBox="0 0 512 512" enable-background="new 0 0 512 512" xml:space="preserve">
<radialGradient id="SVGID_1_" cx="815.9163" cy="58428.9609" r="159.8176" gradientTransform="matrix(0.9182 0 0 0.1318 -441.7038 -7389.9614)" gradientUnits="userSpaceOnUse">
	<stop  offset="0" style="stop-color:#B4B4B4"/>
	<stop  offset="1" style="stop-color:#FFFFFF"/>
</radialGradient>
<path fill="url(#SVGID_1_)" d="M467.927,313.537c0,11.904-71.845,21.546-160.456,21.546c-88.616,0-160.458-9.642-160.458-21.546
	c0-11.885,71.844-21.534,160.458-21.534C396.082,292.003,467.927,301.652,467.927,313.537z"/>
<path fill="#1C75BC" d="M512.997,442.154c0,39.671-32.172,71.879-71.896,71.879H74.214c-39.721,0-71.925-32.207-71.925-71.879V75.23
	c0-39.738,32.204-71.908,71.925-71.908h366.892C480.826,3.322,513,35.495,513,75.23v366.924H512.997L512.997,442.154z"/>
<path fill="#FFFFFF" d="M285.896,194.39l12.703,7.586l43.577-28.702l-10.809-6.5L285.896,194.39L285.896,194.39z M214.604,242.848
	l12.703,8.58l43.182-27.73l-12.393-7.973L214.604,242.848L214.604,242.848z M144.23,193.29l12.695,8.56l43.189-27.709l-11.211-6.989
	L144.23,193.29L144.23,193.29z M240.911,189.858c1.483,0.711,2.538,2.501,2.538,4.594v4.979l-51.901,32.428v83.647l-2.089,1.413l0,0
	l-0.025,0.03l-0.017,0.013l-0.017,0.009l-0.025,0.021l-0.034,0.025l-0.024,0.02l-0.034,0.021l-0.034,0.021l0,0l-0.024,0.019
	l-0.034,0.023l-0.016,0.021l-0.018,0.01l-0.025,0.014l-0.034,0.021l-0.016,0.021h-0.017l-0.026,0.021l-0.067,0.043l-0.034,0.021
	l-0.033,0.021l-0.033,0.011l-0.034,0.021l-0.016,0.01h-0.015l-0.033,0.024l-0.034,0.021h-0.009l-0.025,0.021l-0.032,0.012
	l-0.035,0.01l0,0l-0.032,0.021l-0.033,0.012l-0.026,0.01h-0.008l-0.034,0.021l-0.034,0.021h-0.017h-0.024l-0.026,0.021l-0.033,0.013
	h-0.008l-0.034,0.009l-0.033,0.011l-0.025,0.011h-0.009l-0.034,0.022H188.2l-0.026,0.01l-0.008,0.011h-0.042l-0.034,0.01
	l-0.009,0.013h-0.024h-0.041l-0.035,0.021l0,0h-0.032l-0.034,0.012l-0.034,0.009h-0.008h-0.035l-0.03,0.011h-0.02l-0.024,0.011
	h-0.034h-0.034h-0.007h-0.035l-0.032,0.02h-0.034h-0.009h-0.033h-0.034h-0.025h-0.016h-0.034h-0.042l-0.008,0.013h-0.026h-0.075
	h-0.075h-0.025l-0.019-0.013h-0.033h-0.033h-0.017h-0.025h-0.034h-0.042l0,0h-0.034l-0.032-0.02h-0.034h-0.009h-0.033h-0.042
	l-0.018-0.011h-0.017l-0.033-0.011h-0.043h-0.008l-0.025-0.009l-0.033-0.012h-0.033l0,0l-0.042-0.021h-0.034h-0.025l-0.009-0.013
	l-0.033-0.01h-0.041l-0.01-0.011l-0.024-0.01h-0.034l-0.034-0.022H186.3l-0.023-0.011l-0.034-0.011l-0.034-0.009l0,0l-0.041-0.013
	l-0.025-0.021h-0.024H186.1l-0.034-0.021l-0.032-0.021h-0.008l-0.026-0.01l-0.033-0.012l-0.033-0.021l0,0l-0.034-0.01l-0.034-0.012
	l-0.024-0.021h-0.009l-0.034-0.021l-0.025-0.024h-0.017l-0.024-0.01l-0.025-0.021l-0.034-0.011l-0.032-0.021l-0.034-0.021
	l-0.068-0.043l-0.025-0.021h-0.024l-0.01-0.021l-0.023-0.021l-0.034-0.014l-0.017-0.01l-0.018-0.021l-0.033-0.023l-0.033-0.019l0,0
	l-0.025-0.021l-0.025-0.021l-0.034-0.02l-0.032-0.025l-0.026-0.021l-0.016-0.009l-0.02-0.013l-0.023-0.03h-0.008l-51.504-34.751
	c-1.313-0.89-2.062-2.574-2.062-4.312H131.5v-84.881c0-2.094,1.054-3.892,2.537-4.604l53.23-31.139v0.01
	c1.053-0.617,2.327-0.659,3.457,0.052L240.911,189.858L240.911,189.858z M139.436,201.244l13.377,9.019v16.302l9.923,5.766v-15.371
	l20.571,13.875v73.707l-43.872-29.592V201.244L139.436,201.244z M167.437,208.944l42.416-26.997l21.086,12.662l-43.663,27.729
	L167.437,208.944L167.437,208.944z M218.58,147.646l12.702,8.56l43.183-27.709l-11.204-6.989L218.58,147.646L218.58,147.646z
	 M315.271,143.231c1.48,0.712,2.534,2.501,2.534,4.583v3.242l-55.682,36.237c0,0-39.021-25.385-56.263-37.273v-2.688
	c0-2.092,1.044-3.892,2.537-4.603l53.222-31.141v0.012c1.063-0.619,2.334-0.661,3.454,0.052L315.271,143.231L315.271,143.231z
	 M259.015,270.985l-1.356,0.908l-19.84-13.382l43.602-27.992l19.504,12.181l-38.473,25.959L259.015,270.985L259.015,270.985z
	 M241.796,163.302l43.603-27.98l19.896,12.662l-44.063,27.719L241.796,163.302L241.796,163.302z M273.309,346.22l29.081-19.62
	c0.791-1.527,1.28-3.223,1.28-4.729v-33.066c0-3.107-2.049-4.354-4.55-2.752l-23.671,15.108c-2.502,1.602-4.549,5.441-4.549,8.549
	v33.065C270.901,344.93,271.878,346.179,273.309,346.22L273.309,346.22z M310.899,237.939c1.482,0.722,2.526,2.5,2.526,4.593v84.88
	h-0.009c-0.007,1.738-0.749,3.433-2.062,4.324l-51.514,34.749l0,0l-0.024,0.021l-0.019,0.022h-0.017l-0.035,0.029l-0.024,0.022
	l-0.034,0.021l-0.025,0.03l-0.032,0.024l0,0l-0.032,0.021l-0.025,0.021l-0.023,0.011l-0.01,0.012l-0.033,0.021l-0.025,0.022h-0.018
	l-0.017,0.021l-0.034,0.01l-0.065,0.042l-0.027,0.021l-0.034,0.011l-0.032,0.021l-0.033,0.021l-0.017,0.011l-0.019,0.011
	l-0.032,0.01l-0.025,0.012l-0.018,0.013l-0.017,0.01l-0.032,0.021l-0.034,0.011h-0.009l-0.024,0.013l-0.032,0.02l-0.026,0.009
	l-0.009,0.012h-0.041l-0.023,0.022h-0.02l-0.023,0.021h-0.035l-0.033,0.023l0,0l-0.033,0.011l-0.031,0.011l-0.035,0.01h-0.008
	l-0.035,0.011l-0.031,0.009l-0.018,0.012h-0.018l-0.033,0.012l-0.032,0.01h-0.02l-0.016,0.013l-0.042,0.009h-0.035l0,0l-0.03,0.012
	l-0.044,0.011h-0.024h-0.009l-0.034,0.021h-0.032h-0.018h-0.023l-0.034,0.01h-0.034l-0.009,0.011h-0.033h-0.032h-0.035h-0.008
	l-0.033,0.012h-0.042h-0.017l-0.017,0.01h-0.034h-0.043h-0.006h-0.027h-0.074h-0.085h-0.023h-0.011h-0.033h-0.032l-0.024-0.01
	h-0.018h-0.042l-0.032-0.012l0,0h-0.035h-0.033h-0.034l-0.008-0.011h-0.042l-0.033-0.01h-0.018h-0.018h-0.033l-0.041-0.021h-0.01
	h-0.023l-0.033-0.011l-0.043-0.012l0,0h-0.032l-0.033-0.009l-0.026-0.013h-0.008l-0.043-0.01l-0.033-0.012h-0.016l-0.017-0.012
	l-0.034-0.009l-0.033-0.011h-0.01l-0.033-0.01l-0.032-0.011l-0.026-0.011h-0.008l-0.033-0.023h-0.032l-0.02-0.021h-0.016
	l-0.034-0.022h-0.033l-0.018-0.012l-0.017-0.009l-0.033-0.02l-0.033-0.013l0,0l-0.034-0.011l-0.033-0.021l-0.023-0.01l-0.009-0.013
	l-0.034-0.012l-0.034-0.01l-0.016-0.011l-0.019-0.011l-0.032-0.021l-0.025-0.021l-0.035-0.011l-0.032-0.021l-0.059-0.042
	l-0.033-0.01l-0.026-0.021h-0.008l-0.033-0.022l-0.034-0.021l-0.009-0.012l-0.025-0.011l-0.024-0.021l-0.034-0.021l0,0l-0.025-0.024
	l-0.033-0.03l-0.025-0.021l-0.033-0.022l-0.034-0.029h-0.008l-0.018-0.022l-0.033-0.021l0,0l-51.504-34.749
	c-1.314-0.892-2.064-2.586-2.064-4.324h-0.016v-84.88c0-2.094,1.052-3.882,2.535-4.593l52.036-32.124v0.009
	c1.062-0.628,2.325-0.648,3.455,0.043L310.899,237.939L310.899,237.939z M209.819,250.799l13.377,9.032v16.313l9.924,5.754v-15.381
	l20.572,13.886V354.1l-43.873-29.592V250.799L209.819,250.799z M344.996,295.783l29.08-19.618c0.784-1.519,1.28-3.225,1.28-4.731
	v-33.064c0-3.107-2.046-4.353-4.548-2.752l-23.681,15.109c-2.501,1.601-4.549,5.452-4.549,8.55v33.064
	C342.579,294.497,343.568,295.744,344.996,295.783L344.996,295.783z M382.586,187.504c1.484,0.723,2.526,2.501,2.526,4.593v84.881
	h-0.008c-0.007,1.749-0.749,3.434-2.072,4.323l-51.503,34.75l0,0l-0.034,0.022l-0.011,0.021h-0.016l-0.034,0.031l-0.024,0.019
	l-0.034,0.032l-0.024,0.021l-0.034,0.021l0,0l-0.032,0.022l-0.033,0.02l-0.018,0.013l-0.009,0.011l-0.033,0.021l-0.024,0.021h-0.019
	l-0.016,0.023l-0.033,0.021l-0.07,0.029l-0.03,0.01l-0.028,0.024l-0.029,0.02l-0.035,0.023l-0.02,0.011l-0.015,0.01l-0.034,0.009
	l-0.034,0.022h-0.007l-0.024,0.012l-0.034,0.021l-0.023,0.022h-0.011h-0.032l-0.034,0.021l-0.018,0.009l-0.017,0.01l-0.033,0.012
	l-0.033,0.011l-0.009,0.011l-0.026,0.013h-0.032l-0.032,0.021h-0.009l-0.024,0.01l-0.033,0.012l-0.035,0.013h-0.008l-0.034,0.01
	l-0.03,0.019h-0.02h-0.017l-0.035,0.012l-0.032,0.012h-0.017l-0.023,0.012l-0.034,0.01h-0.035l0,0l-0.033,0.021h-0.039h-0.027
	h-0.008l-0.034,0.009l-0.042,0.013h-0.019h-0.015l-0.033,0.012l-0.042,0.008l0,0h-0.035h-0.042h-0.024h-0.008h-0.043l-0.032,0.011
	l-0.018,0.012h-0.018h-0.041h-0.035h-0.008h-0.033h-0.074h-0.069h-0.033h-0.009h-0.032h-0.042h-0.019l-0.017-0.012l-0.043-0.011
	h-0.032h-0.008h-0.024h-0.043h-0.034l0,0l-0.042-0.008l-0.033-0.012h-0.017h-0.017l-0.042-0.013l-0.034-0.009h-0.008h-0.026h-0.041
	l-0.032-0.021l0,0h-0.035l-0.033-0.01l-0.032-0.012h-0.009l-0.033-0.012l-0.034-0.012h-0.017h-0.019l-0.033-0.019l-0.04-0.01l0,0
	l-0.035-0.013l-0.033-0.012l-0.024-0.01h-0.009l-0.033-0.021h-0.033l-0.024-0.013l-0.009-0.011l-0.035-0.011l-0.04-0.012v-0.01
	l-0.024-0.009l-0.035-0.021H328l0,0l-0.035-0.022l-0.035-0.021l-0.023-0.012H327.9l-0.035-0.022l-0.035-0.009l-0.015-0.01
	l-0.019-0.011l-0.034-0.023l-0.032-0.02l-0.033-0.024l-0.034-0.01l-0.06-0.029l-0.032-0.021l-0.018-0.023h-0.011l-0.031-0.021
	l-0.034-0.021l-0.007-0.011l-0.024-0.013l-0.025-0.02l-0.033-0.022l0,0l-0.035-0.021l-0.023-0.021l-0.035-0.032l-0.024-0.019
	l-0.033-0.031h-0.019l-0.008-0.021l-0.035-0.022l0,0l-1.784-1.203v-11.188v-73.706l-52.194-32.543v-2.846
	c0-2.092,1.045-3.882,2.526-4.604l54.024-33.108v0.01c1.061-0.618,2.332-0.649,3.46,0.053L382.586,187.504L382.586,187.504z
	 M309.507,208.087l43.595-27.991l19.509,12.169l-43.274,29.194L309.507,208.087L309.507,208.087z"/>
</svg>
