<?xml version="1.0" encoding="utf-8"?>
<!-- Generator: Adobe Illustrator 15.0.0, SVG Export Plug-In . SVG Version: 6.00 Build 0)  -->
<!DOCTYPE svg PUBLIC "-//W3C//DTD SVG 1.1//EN" "http://www.w3.org/Graphics/SVG/1.1/DTD/svg11.dtd">
<svg version="1.1" id="图层_1" xmlns="http://www.w3.org/2000/svg" xmlns:xlink="http://www.w3.org/1999/xlink" x="0px" y="0px"
	 width="512px" height="512px" viewBox="0 0 512 512" enable-background="new 0 0 512 512" xml:space="preserve">
<radialGradient id="SVGID_1_" cx="751.7861" cy="55945.5703" r="159.8184" gradientTransform="matrix(0.9182 0 0 0.1318 -382.8201 -7062.6499)" gradientUnits="userSpaceOnUse">
	<stop  offset="0" style="stop-color:#B4B4B4"/>
	<stop  offset="1" style="stop-color:#FFFFFF"/>
</radialGradient>
<path fill="url(#SVGID_1_)" d="M467.927,313.537c0,11.904-71.844,21.546-160.456,21.546c-88.616,0-160.458-9.642-160.458-21.546
	c0-11.885,71.844-21.534,160.458-21.534C396.083,292.003,467.927,301.652,467.927,313.537z"/>
<path fill="#1C75BC" d="M512.998,442.154c0,39.671-32.172,71.879-71.896,71.879H74.214c-39.721,0-71.925-32.207-71.925-71.879V75.23
	c0-39.738,32.204-71.908,71.925-71.908h366.891C480.827,3.322,513,35.495,513,75.23v366.924H512.998L512.998,442.154z"/>
<path id="txt_2_" fill="#FFFFFF" d="M334.712,316.178h-15.581v3.895c0,10.755-8.718,19.478-19.474,19.478H178.905
	c-10.758,0-19.476-8.724-19.476-19.478V164.264c0-10.757,8.718-19.476,19.476-19.476h77.904h7.188v-0.593l0.547,0.593h0.054v0.058
	l53.944,58.372h0.591v0.635l0.264,0.29h-0.264v45.819h15.578c10.76,0,19.479,8.718,19.479,19.476v27.267
	C354.188,307.457,345.471,316.178,334.712,316.178z M264.598,158.771v24.969c0,10.753,8.721,19.476,19.477,19.476h22.458
	L264.598,158.771z M311.341,211.006h-35.058c-10.758,0-19.477-8.724-19.477-19.476v-38.951h-70.114
	c-10.758,0-19.476,8.719-19.476,19.477v140.226c0,10.759,8.718,19.478,19.476,19.478h105.17c9.416,0,17.275-6.69,19.082-15.581
	H221.75c-10.757,0-19.476-8.72-19.476-19.477v-27.269c0-10.756,8.719-19.474,19.476-19.474h89.591V211.006L311.341,211.006z
	 M295.577,268.691h-7.832l-6.574,10.748l-6.71-10.748h-7.895l10.357,16l-11.431,17.46h8.104l7.436-11.571l7.421,11.571h8.149
	l-11.436-17.21L295.577,268.691z M263.366,274.354v-5.66h-26.59v5.66h9.927v27.799h6.756v-27.799H263.366z M325.43,268.691h-26.588
	v5.66h9.928v27.8h6.756v-27.8h9.904V268.691z M178.905,214.9h62.322v7.79h-62.322V214.9z M178.905,183.74h62.322v7.791h-62.322
	V183.74z M178.905,168.159h62.322v7.791h-62.322V168.159z M217.857,207.111h-38.952v-7.79h38.952V207.111z M202.274,238.273h-23.37
	v-7.792h23.37V238.273z"/>
</svg>
