<?xml version="1.0" encoding="utf-8"?>
<!-- Generator: Adobe Illustrator 15.0.0, SVG Export Plug-In . SVG Version: 6.00 Build 0)  -->
<!DOCTYPE svg PUBLIC "-//W3C//DTD SVG 1.1//EN" "http://www.w3.org/Graphics/SVG/1.1/DTD/svg11.dtd">
<svg version="1.1" id="图层_1" xmlns="http://www.w3.org/2000/svg" xmlns:xlink="http://www.w3.org/1999/xlink" x="0px" y="0px"
	 width="512px" height="512px" viewBox="0 0 512 512" enable-background="new 0 0 512 512" xml:space="preserve">
<radialGradient id="SVGID_1_" cx="751.7861" cy="55945.5703" r="159.8184" gradientTransform="matrix(0.9182 0 0 0.1318 -382.8201 -7062.6499)" gradientUnits="userSpaceOnUse">
	<stop  offset="0" style="stop-color:#B4B4B4"/>
	<stop  offset="1" style="stop-color:#FFFFFF"/>
</radialGradient>
<path fill="url(#SVGID_1_)" d="M467.927,313.537c0,11.904-71.844,21.546-160.456,21.546c-88.616,0-160.458-9.642-160.458-21.546
	c0-11.885,71.844-21.534,160.458-21.534C396.083,292.003,467.927,301.652,467.927,313.537z"/>
<path fill="#1C75BC" d="M512.998,442.154c0,39.671-32.172,71.879-71.896,71.879H74.214c-39.721,0-71.925-32.207-71.925-71.879V75.23
	c0-39.738,32.204-71.908,71.925-71.908h366.891C480.827,3.322,513,35.495,513,75.23v366.924H512.998L512.998,442.154z"/>
<g id="car_repair_1_">
	<g>
		<path fill="#FFFFFF" d="M281.334,236.275c6.43,3.369,13.451,5.255,20.837,5.255c30.386,0,55.022-31.505,55.022-70.36
			c0-4.048-0.324-7.99-0.835-11.846l-39.037,53.412l-36.85-8.551l-12.627-45.081l42.042-57.522
			c-2.524-0.458-5.091-0.771-7.718-0.771c-30.393,0-55.033,31.504-55.033,70.361c0,9.983,1.643,19.474,4.587,28.081
			c-16.988,38.243-42.439,70.192-52.456,82.017c-3.113-1.201-6.397-1.852-9.805-1.852c-18.767,0-33.974,19.448-33.974,43.436
			c0,23.99,15.209,43.44,33.974,43.44c18.766,0,33.974-19.447,33.974-43.44c0-5.793-0.905-11.31-2.507-16.36
			C228.495,293.689,248.987,262.207,281.334,236.275z M189.479,345.957c-9.984,0-18.074-10.344-18.074-23.104
			s8.091-23.104,18.074-23.104c9.975,0,18.067,10.344,18.067,23.104S199.454,345.957,189.479,345.957z M192.737,181.757
			l32.186,42.195l15.429-19.733l-32.186-42.198l7.718-9.867l-43.21-55.249l-30.863,39.465l43.208,55.253L192.737,181.757z
			 M292.896,245.531c0,0-26.479,9.206-44.665,49.667c-0.726-2.325,48.738,63.712,48.738,63.712c8.522,10.894,22.342,10.894,30.875,0
			l12.342-15.782c8.52-10.901,8.52-28.571,0-39.465L292.896,245.531z M314.21,348.027c-2.14,2.741-5.61,2.741-7.752,0
			l-39.676-50.731c-2.141-2.736-2.141-7.174,0-9.916c2.141-2.734,5.609-2.734,7.75,0l39.678,50.732
			C316.357,340.857,316.357,345.294,314.21,348.027z M331.672,325.704c-2.14,2.74-5.612,2.74-7.756,0l-39.674-50.731
			c-2.141-2.736-2.141-7.175,0-9.915c2.141-2.733,5.609-2.733,7.75,0l39.68,50.731C333.811,318.533,333.811,322.971,331.672,325.704
			z"/>
	</g>
</g>
</svg>
